<?xml version="1.0" encoding="utf-8"?>
<!-- Generator: Adobe Illustrator 25.4.0, SVG Export Plug-In . SVG Version: 6.00 Build 0)  -->
<svg version="1.1" id="Capa_1" xmlns="http://www.w3.org/2000/svg" xmlns:xlink="http://www.w3.org/1999/xlink" x="0px" y="0px"
	 viewBox="0 0 6000 300" style="enable-background:new 0 0 6000 300;" xml:space="preserve">
<style type="text/css">
	.st0{fill:#EC694C;}
</style>
<path class="st0" d="M5999,176.2c-25.2,0.4-48.3-0.3-67.5-2.3c-55.3-5.9-105.1-26-218.7-40.8c-73.9-9.7-144-14.6-208.2-14.7
	c-80.3-0.1-151.8,7.5-212.3,22.6c-241.9,60.3-311.5,55.2-426.7,46.8c-10.2-0.7-20.7-1.5-31.7-2.3c-63.2-4.3-161.2-20.6-255.6-38.4
	c-197.9-37.4-273.1-36.9-276.7-36.7c-102.7-2.3-176.8,17.4-254.3,37.9c-70,18.6-142.3,37.8-238.5,39.3h-0.6
	c-51.3,0.8-154.5-17.5-263.8-36.9c-94.8-16.8-192.8-34.2-256.4-38.5c-11-0.7-21.5-1.5-31.6-2.3c-41.1-3-76.4-5.6-115.7-4.9
	c-71.5,1.1-156.3,12.9-313.1,52c-59.9,14.9-130.8,22.5-210.5,22.4c-63.9-0.1-133.6-5-207.2-14.6c-105.6-13.8-160-34.5-214.2-40.3
	c-84.1-9-240.1,6.1-336.9,31.8c-70,18.6-142.3,37.8-238.5,39.3h-0.6c-51.3,0.8-154.5-17.5-263.8-36.9
	c-94.8-16.8-192.8-34.2-256.4-38.5c-11-0.7-21.5-1.5-31.6-2.3c-41.1-3-76.4-5.6-115.7-4.9c-71.5,1.1-156.3,12.9-313.1,52
	c-59.9,14.9-130.8,22.5-210.5,22.4c-63.9-0.1-133.6-5-207.2-14.6C107.3,157.8,18.8,135.9,3,131.9l-6.8,5.3l2.5,0.7
	c0.9,0.2,95.7,25.1,221.6,41.6c73.9,9.7,144,14.6,208.2,14.7c80.3,0.1,151.8-7.5,212.3-22.6c241.9-60.3,311.5-55.2,426.7-46.8
	c10.2,0.7,20.7,1.5,31.7,2.3c63.2,4.3,161,21.6,255.6,38.4c109.6,19.4,213.1,37.8,265.1,37h0.6c97.1-1.5,169.8-20.9,240.2-39.6
	c95.1-25.3,247.3-41,329.7-32.2c55.3,5.9,105.1,26,218.7,40.8c73.9,9.7,144,14.6,208.2,14.7c80.3,0.1,151.8-7.5,212.3-22.6
	c241.9-60.3,311.5-55.2,426.7-46.8c10.2,0.7,20.7,1.5,31.7,2.3c63.2,4.3,161,21.6,255.6,38.4c109.6,19.4,213.1,37.8,265.1,37h0.6
	c97.1-1.5,169.8-20.9,240.2-39.6c74.9-19.9,146.6-38.9,244.3-37.8c0,0,63,2.8,93.9,6.7c0,0,121.4,17.9,189.8,30.1
	c94.8,16.8,192.8,34.2,256.4,38.5c11,0.7,21.5,1.5,31.6,2.3c41.1,3,76.4,5.6,115.7,4.9c71.5-1.1,156.3-12.9,313.1-52
	c59.9-14.9,130.8-22.5,210.5-22.4c63.9,0.1,133.6,5,207.2,14.6c105.6,13.8,160,34.5,214.2,40.3c20.6,2.2,45.6,3,72.9,2.5v-6.4H5999z
	"/>
</svg>
