<?xml version="1.0" encoding="utf-8"?>
<!-- Generator: Adobe Illustrator 25.4.0, SVG Export Plug-In . SVG Version: 6.00 Build 0)  -->
<svg version="1.1" id="Capa_1" xmlns="http://www.w3.org/2000/svg" xmlns:xlink="http://www.w3.org/1999/xlink" x="0px" y="0px"
	 viewBox="0 0 900 900" style="enable-background:new 0 0 900 900;" xml:space="preserve">
<style type="text/css">
	.st0{fill:#EC694C;}
	.st1{fill:#616160;}
	.st2{fill:#5296D1;}
</style>
<g>
	<g>
		<g>
			<path class="st0" d="M322.9,224c41.6-23.9,85.5-36,130.6-36c71.8,0,133.8,25.6,184.3,76v0c50.3,50.3,75.8,111.3,76,181.4
				l152.7-2.8C862.6,216,677.7,33.4,450,33.4C220,33.4,33.5,219.9,33.5,450c0,134.2,63.5,253.6,162,329.8l0.8-312
				c0-90.7,27.9-138.4,33.9-147.6C250.1,280.2,281.3,247.9,322.9,224z"/>
		</g>
		<g>
			<path class="st1" d="M578.9,639.1c0.4,0.3,5.9,10.3,14.2,25.6c-41,26.4-87.7,39.9-139.6,39.9c-43.7,0-86.8-11.9-128-35.4
				c-1-0.6-2-1.3-3-1.9l0,179.2c40.2,13,83,20.1,127.6,20.1c79.8,0,154.4-22.5,217.7-61.4c7.5,14.2,12.3,23.2,12.3,23.2l41.2-154.6
				L578.9,639.1z"/>
		</g>
	</g>
</g>
<circle class="st2" cx="468.7" cy="434.8" r="140.8"/>
</svg>
